<svg xmlns="http://www.w3.org/2000/svg" width="8991.333" height="800">
  <path stroke="#1967d2" d="M34.759 25h8926.574M34.759 75h8926.574M34.759 125h8926.574M34.759 175h8926.574M34.759 225h8926.574M34.759 275h8926.574M34.759 325h8926.574M34.759 375h8926.574M34.759 425h8926.574M34.759 475h8926.574M34.759 525h8926.574M34.759 575h8926.574M34.759 625h8926.574M34.759 675h8926.574M34.759 725h8926.574M34.759 775h8926.574"/>
  <path stroke="#000" stroke-width="3" d="M512.219 25v50M596.629 25v50M681.454 25v50M984.939 225v50M1069.349 225v50M1154.174 225v50M1689.17 25v50M2135.018 225v50M2195.018 75v200M2721.364 125v50M2806.079 125v50M2890.746 125v50M3203.264 325v50M3287.979 325v50M3372.646 325v50M3907.119 125v50M4352.817 325v50M4412.817 175v200M4939.949 425v50M5024.582 425v50M5109.283 425v50M5421.926 625v50M5506.559 625v50M5591.26 625v50M6125.862 425v50M6572.208 625v50M6632.208 475v200M7158.542 525v50M7243.26 525v50M7328.034 525v50M7639.93 725v50M7724.649 725v50M7809.423 725v50M8366.344 525v50M8861.333 725v50M8921.333 575v200"/>
  <path fill="#fff" d="M10 5h49.518v40H10z"/>
  <text x="34.759" y="25" dominant-baseline="middle" text-anchor="middle" font-size="14" font-family="Arial">
    (0, 0):
  </text>
  <path fill="#fff" d="M10 55h49.518v40H10z"/>
  <text x="34.759" y="75" dominant-baseline="middle" text-anchor="middle" font-size="14" font-family="Arial">
    (0, 1):
  </text>
  <path fill="#fff" d="M10 105h49.518v40H10z"/>
  <text x="34.759" y="125" dominant-baseline="middle" text-anchor="middle" font-size="14" font-family="Arial">
    (0, 2):
  </text>
  <path fill="#fff" d="M10 155h49.518v40H10z"/>
  <text x="34.759" y="175" dominant-baseline="middle" text-anchor="middle" font-size="14" font-family="Arial">
    (0, 3):
  </text>
  <path fill="#fff" d="M10 205h49.518v40H10z"/>
  <text x="34.759" y="225" dominant-baseline="middle" text-anchor="middle" font-size="14" font-family="Arial">
    (1, 0):
  </text>
  <path fill="#fff" d="M10 255h49.518v40H10z"/>
  <text x="34.759" y="275" dominant-baseline="middle" text-anchor="middle" font-size="14" font-family="Arial">
    (1, 1):
  </text>
  <path fill="#fff" d="M10 305h49.518v40H10z"/>
  <text x="34.759" y="325" dominant-baseline="middle" text-anchor="middle" font-size="14" font-family="Arial">
    (1, 2):
  </text>
  <path fill="#fff" d="M10 355h49.518v40H10z"/>
  <text x="34.759" y="375" dominant-baseline="middle" text-anchor="middle" font-size="14" font-family="Arial">
    (1, 3):
  </text>
  <path fill="#fff" d="M10 405h49.518v40H10z"/>
  <text x="34.759" y="425" dominant-baseline="middle" text-anchor="middle" font-size="14" font-family="Arial">
    (2, 0):
  </text>
  <path fill="#fff" d="M10 455h49.518v40H10z"/>
  <text x="34.759" y="475" dominant-baseline="middle" text-anchor="middle" font-size="14" font-family="Arial">
    (2, 1):
  </text>
  <path fill="#fff" d="M10 505h49.518v40H10z"/>
  <text x="34.759" y="525" dominant-baseline="middle" text-anchor="middle" font-size="14" font-family="Arial">
    (2, 2):
  </text>
  <path fill="#fff" d="M10 555h49.518v40H10z"/>
  <text x="34.759" y="575" dominant-baseline="middle" text-anchor="middle" font-size="14" font-family="Arial">
    (2, 3):
  </text>
  <path fill="#fff" d="M10 605h49.518v40H10z"/>
  <text x="34.759" y="625" dominant-baseline="middle" text-anchor="middle" font-size="14" font-family="Arial">
    (3, 0):
  </text>
  <path fill="#fff" d="M10 655h49.518v40H10z"/>
  <text x="34.759" y="675" dominant-baseline="middle" text-anchor="middle" font-size="14" font-family="Arial">
    (3, 1):
  </text>
  <path fill="#fff" d="M10 705h49.518v40H10z"/>
  <text x="34.759" y="725" dominant-baseline="middle" text-anchor="middle" font-size="14" font-family="Arial">
    (3, 2):
  </text>
  <path fill="#fff" d="M10 755h49.518v40H10z"/>
  <text x="34.759" y="775" dominant-baseline="middle" text-anchor="middle" font-size="14" font-family="Arial">
    (3, 3):
  </text>
  <path stroke="#000" fill="#fff" d="M79.518 5h47.166v40H79.518z"/>
  <text x="103.101" y="25" dominant-baseline="middle" text-anchor="middle" font-size="14" font-family="Arial">
    X^x0
  </text>
  <path stroke="#000" fill="#fff" d="M146.684 5h46.211v40h-46.211z"/>
  <text x="169.789" y="25" dominant-baseline="middle" text-anchor="middle" font-size="14" font-family="Arial">
    Y^x1
  </text>
  <path stroke="#000" fill="#fff" d="M212.895 5h46.482v40h-46.482z"/>
  <text x="236.136" y="25" dominant-baseline="middle" text-anchor="middle" font-size="14" font-family="Arial">
    Z^x2
  </text>
  <path stroke="#000" fill="#fff" d="M279.376 55h46.974v40h-46.974z"/>
  <text x="302.863" y="75" dominant-baseline="middle" text-anchor="middle" font-size="14" font-family="Arial">
    X^x3
  </text>
  <path stroke="#000" fill="#fff" d="M346.35 55h46.718v40H346.35z"/>
  <text x="369.709" y="75" dominant-baseline="middle" text-anchor="middle" font-size="14" font-family="Arial">
    Y^x4
  </text>
  <path stroke="#000" fill="#fff" d="M413.068 55h46.661v40h-46.661z"/>
  <text x="436.399" y="75" dominant-baseline="middle" text-anchor="middle" font-size="14" font-family="Arial">
    Z^x5
  </text>
  <path stroke="#000" fill="#fff" d="M479.73 205h64.98v40h-64.98z"/>
  <text x="512.219" y="225" dominant-baseline="middle" text-anchor="middle" font-size="14" font-family="Arial">
    X^x6
  </text>
  <path stroke="#000" fill="#fff" d="M479.73 5h64.98v40h-64.98z"/>
  <text x="512.219" y="25" dominant-baseline="middle" text-anchor="middle" font-size="14" font-family="Arial">
    ZZ
  </text>
  <path stroke="#000" fill="#fff" d="M479.73 55h64.98v40h-64.98z"/>
  <text x="512.219" y="75" dominant-baseline="middle" text-anchor="middle" font-size="14" font-family="Arial">
    ZZ^x12
  </text>
  <path stroke="#000" fill="#fff" d="M564.709 205h63.84v40h-63.84z"/>
  <text x="596.629" y="225" dominant-baseline="middle" text-anchor="middle" font-size="14" font-family="Arial">
    Y^x7
  </text>
  <path stroke="#000" fill="#fff" d="M564.709 5h63.84v40h-63.84z"/>
  <text x="596.629" y="25" dominant-baseline="middle" text-anchor="middle" font-size="14" font-family="Arial">
    YY
  </text>
  <path stroke="#000" fill="#fff" d="M564.709 55h63.84v40h-63.84z"/>
  <text x="596.629" y="75" dominant-baseline="middle" text-anchor="middle" font-size="14" font-family="Arial">
    YY^x13
  </text>
  <path stroke="#000" fill="#fff" d="M648.549 205h65.809v40h-65.809z"/>
  <text x="681.454" y="225" dominant-baseline="middle" text-anchor="middle" font-size="14" font-family="Arial">
    Z^x8
  </text>
  <path stroke="#000" fill="#fff" d="M648.549 5h65.809v40h-65.809z"/>
  <text x="681.454" y="25" dominant-baseline="middle" text-anchor="middle" font-size="14" font-family="Arial">
    XX
  </text>
  <path stroke="#000" fill="#fff" d="M648.549 55h65.809v40h-65.809z"/>
  <text x="681.454" y="75" dominant-baseline="middle" text-anchor="middle" font-size="14" font-family="Arial">
    XX^x14
  </text>
  <path stroke="#000" fill="#fff" d="M734.358 255h47.112v40h-47.112z"/>
  <text x="757.914" y="275" dominant-baseline="middle" text-anchor="middle" font-size="14" font-family="Arial">
    X^x9
  </text>
  <path stroke="#000" fill="#fff" d="M801.47 255h55.481v40H801.47z"/>
  <text x="829.211" y="275" dominant-baseline="middle" text-anchor="middle" font-size="14" font-family="Arial">
    Y^x10
  </text>
  <path stroke="#000" fill="#fff" d="M876.951 255h55.498v40h-55.498z"/>
  <text x="904.7" y="275" dominant-baseline="middle" text-anchor="middle" font-size="14" font-family="Arial">
    Z^x11
  </text>
  <path stroke="#000" fill="#fff" d="M952.449 205h64.98v40h-64.98z"/>
  <text x="984.939" y="225" dominant-baseline="middle" text-anchor="middle" font-size="14" font-family="Arial">
    ZZ
  </text>
  <path stroke="#000" fill="#fff" d="M952.449 255h64.98v40h-64.98z"/>
  <text x="984.939" y="275" dominant-baseline="middle" text-anchor="middle" font-size="14" font-family="Arial">
    ZZ^x12
  </text>
  <path stroke="#000" fill="#fff" d="M1037.429 205h63.84v40h-63.84z"/>
  <text x="1069.349" y="225" dominant-baseline="middle" text-anchor="middle" font-size="14" font-family="Arial">
    YY
  </text>
  <path stroke="#000" fill="#fff" d="M1037.429 255h63.84v40h-63.84z"/>
  <text x="1069.349" y="275" dominant-baseline="middle" text-anchor="middle" font-size="14" font-family="Arial">
    YY^x13
  </text>
  <path stroke="#000" fill="#fff" d="M1121.269 205h65.809v40h-65.809z"/>
  <text x="1154.174" y="225" dominant-baseline="middle" text-anchor="middle" font-size="14" font-family="Arial">
    XX
  </text>
  <path stroke="#000" fill="#fff" d="M1121.269 255h65.809v40h-65.809z"/>
  <text x="1154.174" y="275" dominant-baseline="middle" text-anchor="middle" font-size="14" font-family="Arial">
    XX^x14
  </text>
  <path stroke="#000" fill="#fff" d="M1207.078 5h55.781v40h-55.781z"/>
  <text x="1234.968" y="25" dominant-baseline="middle" text-anchor="middle" font-size="14" font-family="Arial">
    X^x15
  </text>
  <path stroke="#000" fill="#fff" d="M1282.859 5h55.529v40h-55.529z"/>
  <text x="1310.623" y="25" dominant-baseline="middle" text-anchor="middle" font-size="14" font-family="Arial">
    Y^x16
  </text>
  <path stroke="#000" fill="#fff" d="M1358.388 5h55.595v40h-55.595z"/>
  <text x="1386.185" y="25" dominant-baseline="middle" text-anchor="middle" font-size="14" font-family="Arial">
    Z^x17
  </text>
  <path stroke="#000" fill="#fff" d="M1433.982 55h56.045v40h-56.045z"/>
  <text x="1462.005" y="75" dominant-baseline="middle" text-anchor="middle" font-size="14" font-family="Arial">
    X^x18
  </text>
  <path stroke="#000" fill="#fff" d="M1510.027 55h55.426v40h-55.426z"/>
  <text x="1537.741" y="75" dominant-baseline="middle" text-anchor="middle" font-size="14" font-family="Arial">
    Y^x19
  </text>
  <path stroke="#000" fill="#fff" d="M1585.454 55h55.861v40h-55.861z"/>
  <text x="1613.384" y="75" dominant-baseline="middle" text-anchor="middle" font-size="14" font-family="Arial">
    Z^x20
  </text>
  <path stroke="#000" fill="#fff" d="M1661.315 205h55.711v40h-55.711z"/>
  <text x="1689.17" y="225" dominant-baseline="middle" text-anchor="middle" font-size="14" font-family="Arial">
    X^x21
  </text>
  <circle cx="1689.17" cy="25" r="10"/>
  <path stroke="#000" fill="#fff" d="M1661.315 55h55.711v40h-55.711z"/>
  <text x="1689.17" y="75" dominant-baseline="middle" text-anchor="middle" font-size="18" font-family="Arial">
    X
  </text>
  <path stroke="#000" fill="#fff" d="M1737.026 205h55.008v40h-55.008z"/>
  <text x="1764.53" y="225" dominant-baseline="middle" text-anchor="middle" font-size="14" font-family="Arial">
    Y^x22
  </text>
  <path stroke="#000" fill="#fff" d="M1812.034 205h55.669v40h-55.669z"/>
  <text x="1839.869" y="225" dominant-baseline="middle" text-anchor="middle" font-size="14" font-family="Arial">
    Z^x23
  </text>
  <path stroke="#000" fill="#fff" d="M1887.703 255h56.218v40h-56.218z"/>
  <text x="1915.812" y="275" dominant-baseline="middle" text-anchor="middle" font-size="14" font-family="Arial">
    X^x24
  </text>
  <path stroke="#000" fill="#fff" d="M1963.921 255h55.188v40h-55.188z"/>
  <text x="1991.515" y="275" dominant-baseline="middle" text-anchor="middle" font-size="14" font-family="Arial">
    Y^x25
  </text>
  <path stroke="#000" fill="#fff" d="M2039.109 255h55.91v40h-55.91z"/>
  <text x="2067.064" y="275" dominant-baseline="middle" text-anchor="middle" font-size="14" font-family="Arial">
    Z^x26
  </text>
  <circle cx="2135.018" cy="225" r="10"/>
  <path stroke="#000" fill="#fff" d="M2115.018 255h40v40h-40z"/>
  <text x="2135.018" y="275" dominant-baseline="middle" text-anchor="middle" font-size="18" font-family="Arial">
    X
  </text>
  <circle cx="2195.018" cy="75" r="10"/>
  <path stroke="#000" fill="#fff" d="M2175.018 255h40v40h-40z"/>
  <text x="2195.018" y="275" dominant-baseline="middle" text-anchor="middle" font-size="18" font-family="Arial">
    X
  </text>
  <path stroke="#000" fill="#fff" d="M2235.018 105h55.807v40h-55.807z"/>
  <text x="2262.922" y="125" dominant-baseline="middle" text-anchor="middle" font-size="14" font-family="Arial">
    X^x27
  </text>
  <path stroke="#000" fill="#fff" d="M2310.825 105h55.452v40h-55.452z"/>
  <text x="2338.551" y="125" dominant-baseline="middle" text-anchor="middle" font-size="14" font-family="Arial">
    Y^x28
  </text>
  <path stroke="#000" fill="#fff" d="M2386.278 105h55.807v40h-55.807z"/>
  <text x="2414.181" y="125" dominant-baseline="middle" text-anchor="middle" font-size="14" font-family="Arial">
    Z^x29
  </text>
  <path stroke="#000" fill="#fff" d="M2462.084 155h56.074v40h-56.074z"/>
  <text x="2490.121" y="175" dominant-baseline="middle" text-anchor="middle" font-size="14" font-family="Arial">
    X^x30
  </text>
  <path stroke="#000" fill="#fff" d="M2538.158 155h55.118v40h-55.118z"/>
  <text x="2565.717" y="175" dominant-baseline="middle" text-anchor="middle" font-size="14" font-family="Arial">
    Y^x31
  </text>
  <path stroke="#000" fill="#fff" d="M2613.276 155h55.389v40h-55.389z"/>
  <text x="2640.97" y="175" dominant-baseline="middle" text-anchor="middle" font-size="14" font-family="Arial">
    Z^x32
  </text>
  <path stroke="#000" fill="#fff" d="M2688.665 305h65.398v40h-65.398z"/>
  <text x="2721.364" y="325" dominant-baseline="middle" text-anchor="middle" font-size="14" font-family="Arial">
    X^x33
  </text>
  <path stroke="#000" fill="#fff" d="M2688.665 105h65.398v40h-65.398z"/>
  <text x="2721.364" y="125" dominant-baseline="middle" text-anchor="middle" font-size="14" font-family="Arial">
    ZZ
  </text>
  <path stroke="#000" fill="#fff" d="M2688.665 155h65.398v40h-65.398z"/>
  <text x="2721.364" y="175" dominant-baseline="middle" text-anchor="middle" font-size="14" font-family="Arial">
    ZZ^x39
  </text>
  <path stroke="#000" fill="#fff" d="M2774.062 305h64.033v40h-64.033z"/>
  <text x="2806.079" y="325" dominant-baseline="middle" text-anchor="middle" font-size="14" font-family="Arial">
    Y^x34
  </text>
  <path stroke="#000" fill="#fff" d="M2774.062 105h64.033v40h-64.033z"/>
  <text x="2806.079" y="125" dominant-baseline="middle" text-anchor="middle" font-size="14" font-family="Arial">
    YY
  </text>
  <path stroke="#000" fill="#fff" d="M2774.062 155h64.033v40h-64.033z"/>
  <text x="2806.079" y="175" dominant-baseline="middle" text-anchor="middle" font-size="14" font-family="Arial">
    YY^x40
  </text>
  <path stroke="#000" fill="#fff" d="M2858.095 305h65.301v40h-65.301z"/>
  <text x="2890.746" y="325" dominant-baseline="middle" text-anchor="middle" font-size="14" font-family="Arial">
    Z^x35
  </text>
  <path stroke="#000" fill="#fff" d="M2858.095 105h65.301v40h-65.301z"/>
  <text x="2890.746" y="125" dominant-baseline="middle" text-anchor="middle" font-size="14" font-family="Arial">
    XX
  </text>
  <path stroke="#000" fill="#fff" d="M2858.095 155h65.301v40h-65.301z"/>
  <text x="2890.746" y="175" dominant-baseline="middle" text-anchor="middle" font-size="14" font-family="Arial">
    XX^x41
  </text>
  <path stroke="#000" fill="#fff" d="M2943.396 355h56.122v40h-56.122z"/>
  <text x="2971.457" y="375" dominant-baseline="middle" text-anchor="middle" font-size="14" font-family="Arial">
    X^x36
  </text>
  <path stroke="#000" fill="#fff" d="M3019.518 355h55.214v40h-55.214z"/>
  <text x="3047.125" y="375" dominant-baseline="middle" text-anchor="middle" font-size="14" font-family="Arial">
    Y^x37
  </text>
  <path stroke="#000" fill="#fff" d="M3094.732 355h55.833v40h-55.833z"/>
  <text x="3122.649" y="375" dominant-baseline="middle" text-anchor="middle" font-size="14" font-family="Arial">
    Z^x38
  </text>
  <path stroke="#000" fill="#fff" d="M3170.565 305h65.398v40h-65.398z"/>
  <text x="3203.264" y="325" dominant-baseline="middle" text-anchor="middle" font-size="14" font-family="Arial">
    ZZ
  </text>
  <path stroke="#000" fill="#fff" d="M3170.565 355h65.398v40h-65.398z"/>
  <text x="3203.264" y="375" dominant-baseline="middle" text-anchor="middle" font-size="14" font-family="Arial">
    ZZ^x39
  </text>
  <path stroke="#000" fill="#fff" d="M3255.963 305h64.033v40h-64.033z"/>
  <text x="3287.979" y="325" dominant-baseline="middle" text-anchor="middle" font-size="14" font-family="Arial">
    YY
  </text>
  <path stroke="#000" fill="#fff" d="M3255.963 355h64.033v40h-64.033z"/>
  <text x="3287.979" y="375" dominant-baseline="middle" text-anchor="middle" font-size="14" font-family="Arial">
    YY^x40
  </text>
  <path stroke="#000" fill="#fff" d="M3339.995 305h65.301v40h-65.301z"/>
  <text x="3372.646" y="325" dominant-baseline="middle" text-anchor="middle" font-size="14" font-family="Arial">
    XX
  </text>
  <path stroke="#000" fill="#fff" d="M3339.995 355h65.301v40h-65.301z"/>
  <text x="3372.646" y="375" dominant-baseline="middle" text-anchor="middle" font-size="14" font-family="Arial">
    XX^x41
  </text>
  <path stroke="#000" fill="#fff" d="M3425.297 105h55.601v40h-55.601z"/>
  <text x="3453.097" y="125" dominant-baseline="middle" text-anchor="middle" font-size="14" font-family="Arial">
    X^x42
  </text>
  <path stroke="#000" fill="#fff" d="M3500.898 105h55.288v40h-55.288z"/>
  <text x="3528.542" y="125" dominant-baseline="middle" text-anchor="middle" font-size="14" font-family="Arial">
    Y^x43
  </text>
  <path stroke="#000" fill="#fff" d="M3576.186 105h56.006v40h-56.006z"/>
  <text x="3604.189" y="125" dominant-baseline="middle" text-anchor="middle" font-size="14" font-family="Arial">
    Z^x44
  </text>
  <path stroke="#000" fill="#fff" d="M3652.192 155h55.781v40h-55.781z"/>
  <text x="3680.083" y="175" dominant-baseline="middle" text-anchor="middle" font-size="14" font-family="Arial">
    X^x45
  </text>
  <path stroke="#000" fill="#fff" d="M3727.973 155h55.529v40h-55.529z"/>
  <text x="3755.737" y="175" dominant-baseline="middle" text-anchor="middle" font-size="14" font-family="Arial">
    Y^x46
  </text>
  <path stroke="#000" fill="#fff" d="M3803.502 155h55.595v40h-55.595z"/>
  <text x="3831.299" y="175" dominant-baseline="middle" text-anchor="middle" font-size="14" font-family="Arial">
    Z^x47
  </text>
  <path stroke="#000" fill="#fff" d="M3879.096 305h56.045v40h-56.045z"/>
  <text x="3907.119" y="325" dominant-baseline="middle" text-anchor="middle" font-size="14" font-family="Arial">
    X^x48
  </text>
  <circle cx="3907.119" cy="125" r="10"/>
  <path stroke="#000" fill="#fff" d="M3879.096 155h56.045v40h-56.045z"/>
  <text x="3907.119" y="175" dominant-baseline="middle" text-anchor="middle" font-size="18" font-family="Arial">
    X
  </text>
  <path stroke="#000" fill="#fff" d="M3955.142 305h55.426v40h-55.426z"/>
  <text x="3982.855" y="325" dominant-baseline="middle" text-anchor="middle" font-size="14" font-family="Arial">
    Y^x49
  </text>
  <path stroke="#000" fill="#fff" d="M4030.568 305h55.861v40h-55.861z"/>
  <text x="4058.499" y="325" dominant-baseline="middle" text-anchor="middle" font-size="14" font-family="Arial">
    Z^x50
  </text>
  <path stroke="#000" fill="#fff" d="M4106.429 355h55.711v40h-55.711z"/>
  <text x="4134.285" y="375" dominant-baseline="middle" text-anchor="middle" font-size="14" font-family="Arial">
    X^x51
  </text>
  <path stroke="#000" fill="#fff" d="M4182.14 355h55.008v40h-55.008z"/>
  <text x="4209.644" y="375" dominant-baseline="middle" text-anchor="middle" font-size="14" font-family="Arial">
    Y^x52
  </text>
  <path stroke="#000" fill="#fff" d="M4257.148 355h55.669v40h-55.669z"/>
  <text x="4284.983" y="375" dominant-baseline="middle" text-anchor="middle" font-size="14" font-family="Arial">
    Z^x53
  </text>
  <circle cx="4352.817" cy="325" r="10"/>
  <path stroke="#000" fill="#fff" d="M4332.817 355h40v40h-40z"/>
  <text x="4352.817" y="375" dominant-baseline="middle" text-anchor="middle" font-size="18" font-family="Arial">
    X
  </text>
  <circle cx="4412.817" cy="175" r="10"/>
  <path stroke="#000" fill="#fff" d="M4392.817 355h40v40h-40z"/>
  <text x="4412.817" y="375" dominant-baseline="middle" text-anchor="middle" font-size="18" font-family="Arial">
    X
  </text>
  <path stroke="#000" fill="#fff" d="M4452.817 405h56.218v40h-56.218z"/>
  <text x="4480.926" y="425" dominant-baseline="middle" text-anchor="middle" font-size="14" font-family="Arial">
    X^x54
  </text>
  <path stroke="#000" fill="#fff" d="M4529.035 405h55.188v40h-55.188z"/>
  <text x="4556.629" y="425" dominant-baseline="middle" text-anchor="middle" font-size="14" font-family="Arial">
    Y^x55
  </text>
  <path stroke="#000" fill="#fff" d="M4604.223 405h55.91v40h-55.91z"/>
  <text x="4632.178" y="425" dominant-baseline="middle" text-anchor="middle" font-size="14" font-family="Arial">
    Z^x56
  </text>
  <path stroke="#000" fill="#fff" d="M4680.133 455h55.807v40h-55.807z"/>
  <text x="4708.036" y="475" dominant-baseline="middle" text-anchor="middle" font-size="14" font-family="Arial">
    X^x57
  </text>
  <path stroke="#000" fill="#fff" d="M4755.939 455h55.452v40h-55.452z"/>
  <text x="4783.666" y="475" dominant-baseline="middle" text-anchor="middle" font-size="14" font-family="Arial">
    Y^x58
  </text>
  <path stroke="#000" fill="#fff" d="M4831.392 455h55.807v40h-55.807z"/>
  <text x="4859.295" y="475" dominant-baseline="middle" text-anchor="middle" font-size="14" font-family="Arial">
    Z^x59
  </text>
  <path stroke="#000" fill="#fff" d="M4907.199 605h65.5v40h-65.5z"/>
  <text x="4939.949" y="625" dominant-baseline="middle" text-anchor="middle" font-size="14" font-family="Arial">
    X^x60
  </text>
  <path stroke="#000" fill="#fff" d="M4907.199 405h65.5v40h-65.5z"/>
  <text x="4939.949" y="425" dominant-baseline="middle" text-anchor="middle" font-size="14" font-family="Arial">
    ZZ
  </text>
  <path stroke="#000" fill="#fff" d="M4907.199 455h65.5v40h-65.5z"/>
  <text x="4939.949" y="475" dominant-baseline="middle" text-anchor="middle" font-size="14" font-family="Arial">
    ZZ^x66
  </text>
  <path stroke="#000" fill="#fff" d="M4992.699 605h63.766v40h-63.766z"/>
  <text x="5024.582" y="625" dominant-baseline="middle" text-anchor="middle" font-size="14" font-family="Arial">
    Y^x61
  </text>
  <path stroke="#000" fill="#fff" d="M4992.699 405h63.766v40h-63.766z"/>
  <text x="5024.582" y="425" dominant-baseline="middle" text-anchor="middle" font-size="14" font-family="Arial">
    YY
  </text>
  <path stroke="#000" fill="#fff" d="M4992.699 455h63.766v40h-63.766z"/>
  <text x="5024.582" y="475" dominant-baseline="middle" text-anchor="middle" font-size="14" font-family="Arial">
    YY^x67
  </text>
  <path stroke="#000" fill="#fff" d="M5076.465 605h65.636v40h-65.636z"/>
  <text x="5109.283" y="625" dominant-baseline="middle" text-anchor="middle" font-size="14" font-family="Arial">
    Z^x62
  </text>
  <path stroke="#000" fill="#fff" d="M5076.465 405h65.636v40h-65.636z"/>
  <text x="5109.283" y="425" dominant-baseline="middle" text-anchor="middle" font-size="14" font-family="Arial">
    XX
  </text>
  <path stroke="#000" fill="#fff" d="M5076.465 455h65.636v40h-65.636z"/>
  <text x="5109.283" y="475" dominant-baseline="middle" text-anchor="middle" font-size="14" font-family="Arial">
    XX^x68
  </text>
  <path stroke="#000" fill="#fff" d="M5162.101 655h55.881v40h-55.881z"/>
  <text x="5190.041" y="675" dominant-baseline="middle" text-anchor="middle" font-size="14" font-family="Arial">
    X^x63
  </text>
  <path stroke="#000" fill="#fff" d="M5237.982 655h55.625v40h-55.625z"/>
  <text x="5265.795" y="675" dominant-baseline="middle" text-anchor="middle" font-size="14" font-family="Arial">
    Y^x64
  </text>
  <path stroke="#000" fill="#fff" d="M5313.607 655h55.568v40h-55.568z"/>
  <text x="5341.391" y="675" dominant-baseline="middle" text-anchor="middle" font-size="14" font-family="Arial">
    Z^x65
  </text>
  <path stroke="#000" fill="#fff" d="M5389.176 605h65.5v40h-65.5z"/>
  <text x="5421.926" y="625" dominant-baseline="middle" text-anchor="middle" font-size="14" font-family="Arial">
    ZZ
  </text>
  <path stroke="#000" fill="#fff" d="M5389.176 655h65.5v40h-65.5z"/>
  <text x="5421.926" y="675" dominant-baseline="middle" text-anchor="middle" font-size="14" font-family="Arial">
    ZZ^x66
  </text>
  <path stroke="#000" fill="#fff" d="M5474.676 605h63.766v40h-63.766z"/>
  <text x="5506.559" y="625" dominant-baseline="middle" text-anchor="middle" font-size="14" font-family="Arial">
    YY
  </text>
  <path stroke="#000" fill="#fff" d="M5474.676 655h63.766v40h-63.766z"/>
  <text x="5506.559" y="675" dominant-baseline="middle" text-anchor="middle" font-size="14" font-family="Arial">
    YY^x67
  </text>
  <path stroke="#000" fill="#fff" d="M5558.442 605h65.636v40h-65.636z"/>
  <text x="5591.26" y="625" dominant-baseline="middle" text-anchor="middle" font-size="14" font-family="Arial">
    XX
  </text>
  <path stroke="#000" fill="#fff" d="M5558.442 655h65.636v40h-65.636z"/>
  <text x="5591.26" y="675" dominant-baseline="middle" text-anchor="middle" font-size="14" font-family="Arial">
    XX^x68
  </text>
  <path stroke="#000" fill="#fff" d="M5644.078 405h56.019v40h-56.019z"/>
  <text x="5672.087" y="425" dominant-baseline="middle" text-anchor="middle" font-size="14" font-family="Arial">
    X^x69
  </text>
  <path stroke="#000" fill="#fff" d="M5720.097 405h55.481v40h-55.481z"/>
  <text x="5747.837" y="425" dominant-baseline="middle" text-anchor="middle" font-size="14" font-family="Arial">
    Y^x70
  </text>
  <path stroke="#000" fill="#fff" d="M5795.578 405h55.498v40h-55.498z"/>
  <text x="5823.327" y="425" dominant-baseline="middle" text-anchor="middle" font-size="14" font-family="Arial">
    Z^x71
  </text>
  <path stroke="#000" fill="#fff" d="M5871.076 455h55.601v40h-55.601z"/>
  <text x="5898.877" y="475" dominant-baseline="middle" text-anchor="middle" font-size="14" font-family="Arial">
    X^x72
  </text>
  <path stroke="#000" fill="#fff" d="M5946.677 455h55.288v40h-55.288z"/>
  <text x="5974.321" y="475" dominant-baseline="middle" text-anchor="middle" font-size="14" font-family="Arial">
    Y^x73
  </text>
  <path stroke="#000" fill="#fff" d="M6021.966 455h56.006v40h-56.006z"/>
  <text x="6049.968" y="475" dominant-baseline="middle" text-anchor="middle" font-size="14" font-family="Arial">
    Z^x74
  </text>
  <path stroke="#000" fill="#fff" d="M6097.971 605h55.781v40h-55.781z"/>
  <text x="6125.862" y="625" dominant-baseline="middle" text-anchor="middle" font-size="14" font-family="Arial">
    X^x75
  </text>
  <circle cx="6125.862" cy="425" r="10"/>
  <path stroke="#000" fill="#fff" d="M6097.971 455h55.781v40h-55.781z"/>
  <text x="6125.862" y="475" dominant-baseline="middle" text-anchor="middle" font-size="18" font-family="Arial">
    X
  </text>
  <path stroke="#000" fill="#fff" d="M6173.752 605h55.529v40h-55.529z"/>
  <text x="6201.516" y="625" dominant-baseline="middle" text-anchor="middle" font-size="14" font-family="Arial">
    Y^x76
  </text>
  <path stroke="#000" fill="#fff" d="M6249.281 605h55.595v40h-55.595z"/>
  <text x="6277.078" y="625" dominant-baseline="middle" text-anchor="middle" font-size="14" font-family="Arial">
    Z^x77
  </text>
  <path stroke="#000" fill="#fff" d="M6324.876 655h56.045v40h-56.045z"/>
  <text x="6352.898" y="675" dominant-baseline="middle" text-anchor="middle" font-size="14" font-family="Arial">
    X^x78
  </text>
  <path stroke="#000" fill="#fff" d="M6400.921 655h55.426v40h-55.426z"/>
  <text x="6428.634" y="675" dominant-baseline="middle" text-anchor="middle" font-size="14" font-family="Arial">
    Y^x79
  </text>
  <path stroke="#000" fill="#fff" d="M6476.347 655h55.861v40h-55.861z"/>
  <text x="6504.278" y="675" dominant-baseline="middle" text-anchor="middle" font-size="14" font-family="Arial">
    Z^x80
  </text>
  <circle cx="6572.208" cy="625" r="10"/>
  <path stroke="#000" fill="#fff" d="M6552.208 655h40v40h-40z"/>
  <text x="6572.208" y="675" dominant-baseline="middle" text-anchor="middle" font-size="18" font-family="Arial">
    X
  </text>
  <circle cx="6632.208" cy="475" r="10"/>
  <path stroke="#000" fill="#fff" d="M6612.208 655h40v40h-40z"/>
  <text x="6632.208" y="675" dominant-baseline="middle" text-anchor="middle" font-size="18" font-family="Arial">
    X
  </text>
  <path stroke="#000" fill="#fff" d="M6672.208 505h55.711v40h-55.711z"/>
  <text x="6700.064" y="525" dominant-baseline="middle" text-anchor="middle" font-size="14" font-family="Arial">
    X^x81
  </text>
  <path stroke="#000" fill="#fff" d="M6747.919 505h55.008v40h-55.008z"/>
  <text x="6775.423" y="525" dominant-baseline="middle" text-anchor="middle" font-size="14" font-family="Arial">
    Y^x82
  </text>
  <path stroke="#000" fill="#fff" d="M6822.927 505h55.669v40h-55.669z"/>
  <text x="6850.762" y="525" dominant-baseline="middle" text-anchor="middle" font-size="14" font-family="Arial">
    Z^x83
  </text>
  <path stroke="#000" fill="#fff" d="M6898.596 555h56.218v40h-56.218z"/>
  <text x="6926.705" y="575" dominant-baseline="middle" text-anchor="middle" font-size="14" font-family="Arial">
    X^x84
  </text>
  <path stroke="#000" fill="#fff" d="M6974.814 555h55.188v40h-55.188z"/>
  <text x="7002.408" y="575" dominant-baseline="middle" text-anchor="middle" font-size="14" font-family="Arial">
    Y^x85
  </text>
  <path stroke="#000" fill="#fff" d="M7050.002 555h55.91v40h-55.91z"/>
  <text x="7077.957" y="575" dominant-baseline="middle" text-anchor="middle" font-size="14" font-family="Arial">
    Z^x86
  </text>
  <path stroke="#000" fill="#fff" d="M7125.912 705h65.26v40h-65.26z"/>
  <text x="7158.542" y="725" dominant-baseline="middle" text-anchor="middle" font-size="14" font-family="Arial">
    X^x87
  </text>
  <path stroke="#000" fill="#fff" d="M7125.912 505h65.26v40h-65.26z"/>
  <text x="7158.542" y="525" dominant-baseline="middle" text-anchor="middle" font-size="14" font-family="Arial">
    ZZ
  </text>
  <path stroke="#000" fill="#fff" d="M7125.912 555h65.26v40h-65.26z"/>
  <text x="7158.542" y="575" dominant-baseline="middle" text-anchor="middle" font-size="14" font-family="Arial">
    ZZ^x93
  </text>
  <path stroke="#000" fill="#fff" d="M7211.171 705h64.177v40h-64.177z"/>
  <text x="7243.26" y="725" dominant-baseline="middle" text-anchor="middle" font-size="14" font-family="Arial">
    Y^x88
  </text>
  <path stroke="#000" fill="#fff" d="M7211.171 505h64.177v40h-64.177z"/>
  <text x="7243.26" y="525" dominant-baseline="middle" text-anchor="middle" font-size="14" font-family="Arial">
    YY
  </text>
  <path stroke="#000" fill="#fff" d="M7211.171 555h64.177v40h-64.177z"/>
  <text x="7243.26" y="575" dominant-baseline="middle" text-anchor="middle" font-size="14" font-family="Arial">
    YY^x94
  </text>
  <path stroke="#000" fill="#fff" d="M7295.348 705h65.371v40h-65.371z"/>
  <text x="7328.034" y="725" dominant-baseline="middle" text-anchor="middle" font-size="14" font-family="Arial">
    Z^x89
  </text>
  <path stroke="#000" fill="#fff" d="M7295.348 505h65.371v40h-65.371z"/>
  <text x="7328.034" y="525" dominant-baseline="middle" text-anchor="middle" font-size="14" font-family="Arial">
    XX
  </text>
  <path stroke="#000" fill="#fff" d="M7295.348 555h65.371v40h-65.371z"/>
  <text x="7328.034" y="575" dominant-baseline="middle" text-anchor="middle" font-size="14" font-family="Arial">
    XX^x95
  </text>
  <path stroke="#000" fill="#fff" d="M7380.72 755h56.074v40h-56.074z"/>
  <text x="7408.757" y="775" dominant-baseline="middle" text-anchor="middle" font-size="14" font-family="Arial">
    X^x90
  </text>
  <path stroke="#000" fill="#fff" d="M7456.794 755h55.118v40h-55.118z"/>
  <text x="7484.352" y="775" dominant-baseline="middle" text-anchor="middle" font-size="14" font-family="Arial">
    Y^x91
  </text>
  <path stroke="#000" fill="#fff" d="M7531.911 755h55.389v40h-55.389z"/>
  <text x="7559.606" y="775" dominant-baseline="middle" text-anchor="middle" font-size="14" font-family="Arial">
    Z^x92
  </text>
  <path stroke="#000" fill="#fff" d="M7607.3 705h65.26v40h-65.26z"/>
  <text x="7639.93" y="725" dominant-baseline="middle" text-anchor="middle" font-size="14" font-family="Arial">
    ZZ
  </text>
  <path stroke="#000" fill="#fff" d="M7607.3 755h65.26v40h-65.26z"/>
  <text x="7639.93" y="775" dominant-baseline="middle" text-anchor="middle" font-size="14" font-family="Arial">
    ZZ^x93
  </text>
  <path stroke="#000" fill="#fff" d="M7692.56 705h64.177v40h-64.177z"/>
  <text x="7724.649" y="725" dominant-baseline="middle" text-anchor="middle" font-size="14" font-family="Arial">
    YY
  </text>
  <path stroke="#000" fill="#fff" d="M7692.56 755h64.177v40h-64.177z"/>
  <text x="7724.649" y="775" dominant-baseline="middle" text-anchor="middle" font-size="14" font-family="Arial">
    YY^x94
  </text>
  <path stroke="#000" fill="#fff" d="M7776.737 705h65.371v40h-65.371z"/>
  <text x="7809.423" y="725" dominant-baseline="middle" text-anchor="middle" font-size="14" font-family="Arial">
    XX
  </text>
  <path stroke="#000" fill="#fff" d="M7776.737 755h65.371v40h-65.371z"/>
  <text x="7809.423" y="775" dominant-baseline="middle" text-anchor="middle" font-size="14" font-family="Arial">
    XX^x95
  </text>
  <path stroke="#000" fill="#fff" d="M7862.108 505h56.122v40h-56.122z"/>
  <text x="7890.169" y="525" dominant-baseline="middle" text-anchor="middle" font-size="14" font-family="Arial">
    X^x96
  </text>
  <path stroke="#000" fill="#fff" d="M7938.23 505h55.214v40h-55.214z"/>
  <text x="7965.837" y="525" dominant-baseline="middle" text-anchor="middle" font-size="14" font-family="Arial">
    Y^x97
  </text>
  <path stroke="#000" fill="#fff" d="M8013.444 505h55.833v40h-55.833z"/>
  <text x="8041.361" y="525" dominant-baseline="middle" text-anchor="middle" font-size="14" font-family="Arial">
    Z^x98
  </text>
  <path stroke="#000" fill="#fff" d="M8089.277 555h56.019v40h-56.019z"/>
  <text x="8117.287" y="575" dominant-baseline="middle" text-anchor="middle" font-size="14" font-family="Arial">
    X^x99
  </text>
  <path stroke="#000" fill="#fff" d="M8165.296 555h64.388v40h-64.388z"/>
  <text x="8197.49" y="575" dominant-baseline="middle" text-anchor="middle" font-size="14" font-family="Arial">
    Y^x100
  </text>
  <path stroke="#000" fill="#fff" d="M8249.684 555h64.406v40h-64.406z"/>
  <text x="8281.887" y="575" dominant-baseline="middle" text-anchor="middle" font-size="14" font-family="Arial">
    Z^x101
  </text>
  <path stroke="#000" fill="#fff" d="M8334.09 705h64.508v40h-64.508z"/>
  <text x="8366.344" y="725" dominant-baseline="middle" text-anchor="middle" font-size="14" font-family="Arial">
    X^x102
  </text>
  <circle cx="8366.344" cy="525" r="10"/>
  <path stroke="#000" fill="#fff" d="M8334.09 555h64.508v40h-64.508z"/>
  <text x="8366.344" y="575" dominant-baseline="middle" text-anchor="middle" font-size="18" font-family="Arial">
    X
  </text>
  <path stroke="#000" fill="#fff" d="M8418.598 705h64.196v40h-64.196z"/>
  <text x="8450.696" y="725" dominant-baseline="middle" text-anchor="middle" font-size="14" font-family="Arial">
    Y^x103
  </text>
  <path stroke="#000" fill="#fff" d="M8502.794 705h64.913v40h-64.913z"/>
  <text x="8535.25" y="725" dominant-baseline="middle" text-anchor="middle" font-size="14" font-family="Arial">
    Z^x104
  </text>
  <path stroke="#000" fill="#fff" d="M8587.707 755h64.688v40h-64.688z"/>
  <text x="8620.051" y="775" dominant-baseline="middle" text-anchor="middle" font-size="14" font-family="Arial">
    X^x105
  </text>
  <path stroke="#000" fill="#fff" d="M8672.395 755h64.436v40h-64.436z"/>
  <text x="8704.613" y="775" dominant-baseline="middle" text-anchor="middle" font-size="14" font-family="Arial">
    Y^x106
  </text>
  <path stroke="#000" fill="#fff" d="M8756.831 755h64.502v40h-64.502z"/>
  <text x="8789.082" y="775" dominant-baseline="middle" text-anchor="middle" font-size="14" font-family="Arial">
    Z^x107
  </text>
  <circle cx="8861.333" cy="725" r="10"/>
  <path stroke="#000" fill="#fff" d="M8841.333 755h40v40h-40z"/>
  <text x="8861.333" y="775" dominant-baseline="middle" text-anchor="middle" font-size="18" font-family="Arial">
    X
  </text>
  <circle cx="8921.333" cy="575" r="10"/>
  <path stroke="#000" fill="#fff" d="M8901.333 755h40v40h-40z"/>
  <text x="8921.333" y="775" dominant-baseline="middle" text-anchor="middle" font-size="18" font-family="Arial">
    X
  </text>
</svg>
